<svg version="1.1" id="Layer_1" xmlns="http://www.w3.org/2000/svg" xmlns:xlink="http://www.w3.org/1999/xlink" x="0px" y="0px" viewBox="0 0 210.5289 250" style="enable-background:new 0 0 210.5289 250;" xml:space="preserve"><defs><style> .svg-style-0 {  fill: rgb(0, 0, 0); }</style></defs><path id="path-01_00000017483224828682792440000009138695859697598616_" d="M210.5289,82.73395
	c0-28.5083-3.78835-82.31985-18.09459-82.7245c-0.01408-0.00083-0.02792-0.00182-0.04199-0.00249
	C192.35231,0.00629,192.31331,0,192.27315,0c-0.07611,0-0.14825,0.01988-0.22379,0.02253
	c-0.07379,0.00629-0.14708,0.01027-0.22012,0.0222c-3.03503,0.21963-5.62849,2.67966-7.89911,7.49769
	c-0.89021,0.82851-1.85745,1.75161-2.93549,2.78534c-12.37898,11.87148-35.4223,33.96867-72.58046,33.96867H47.1712
	c-3.13226,0-7.2933,1.63748-10.61728,8.64091H11.84431c-2.88803,0-6.87191,1.80411-9.44723,10.39931
	C0.85136,68.49522,0,75.38568,0,82.73794c0,14.40704,3.11197,29.80126,11.84431,29.80126h24.66605
	c1.28724,2.72348,2.85076,4.94466,4.71649,6.45468c-2.53672,12.02983,2.95503,17.14766,3.19876,17.36513
	c0.50155,0.44855,1.14687,0.68971,1.80743,0.68971c0.17756,0,0.35711-0.01723,0.53467-0.05301l7.45363-1.49734
	c1.0884,22.95412,1.52121,65.01279-7.00243,97.61339c-0.0742,0.28491-0.10203,0.57974-0.08149,0.8739
	c0.35711,5.16519,3.60358,9.39026,9.38958,12.21732C61.78031,248.77032,68.81256,250,76.08333,250
	c10.28004,0,21.03381-2.46002,27.89182-7.07797c5.34143-3.59695,7.97571-8.22815,7.61859-13.394
	c-0.01457-0.21599-0.05565-0.42999-0.1219-0.6367c-0.08904-0.27985-4.71625-15.08011-7.66672-37.10516
	c6.18617-1.95259,11.75204-6.618,12.01698-6.84276c0.86131-0.72813,1.18132-1.91409,0.80499-2.97748l-14.66327-41.39902
	c0.34874-4.93465,0.87357-9.94083,1.60484-14.98206l17.51761-3.5191c29.81599,4.23184,49.0033,22.61705,59.90837,33.07507
	c1.0782,1.03389,2.04561,1.95732,2.93597,2.78575c2.37498,5.03667,5.09497,7.52005,8.30798,7.53784
	c0.01234,0.00017,0.02419,0.00415,0.03653,0.00415c0.00264,0,0.00513-0.00125,0.00778-0.00125
	C206.71497,165.44264,210.5289,111.34338,210.5289,82.73395z M47.1712,49.72398h61.24298
	c34.90286,0,58.50932-18.86265,71.77678-31.15948c-3.84541,15.21468-6.1842,38.74297-6.1842,64.16945
	s2.33879,48.95544,6.1842,64.17013c-13.26747-12.29684-36.87393-31.15948-71.77679-31.15948H47.1712
	c-5.68795,0-10.31583-14.80854-10.31583-33.01064C36.85538,64.53252,41.48325,49.72398,47.1712,49.72398z M204.78662,66.68173
	c-1.68651-4.34496-4.18729-7.30695-7.45595-7.56998c-0.05251-0.00911-0.10178-0.0265-0.15536-0.03263l-16.92677-1.93662
	c1.36244-20.76117,4.35524-37.97358,8.37199-46.8439c1.79814-3.99581,3.24648-4.87103,3.65262-4.87103
	c1.08922,0,4.95781,3.90239,8.32553,21.24185C202.75459,37.77085,204.18976,51.61075,204.78662,66.68173z M179.43434,82.73395
	c0-1.98001,0.01408-3.94727,0.04182-5.89871c0.02783-1.95145,0.06924-3.88707,0.12398-5.80373
	c0.05475-1.91658,0.12274-3.81435,0.20366-5.68986c0.04008-0.92979,0.08356-1.85413,0.12994-2.77267l10.40096,1.1901
	c-2.63022,4.54655-3.98869,11.78319-3.98869,18.9795c0,7.5733,1.50539,15.1876,4.41422,19.66599l-10.71095,2.62634
	C179.64818,97.91119,179.43434,90.41988,179.43434,82.73395z M191.77357,82.73859c0-11.85491,3.61485-18.24979,5.09299-18.24979
	s5.09299,6.39488,5.09299,18.24979c0,11.85426-3.61485,18.24914-5.09299,18.24914S191.77357,94.59284,191.77357,82.73859z
	 M46.33424,121.12511c0.27578,0.02452,0.55223,0.04704,0.83696,0.04704h50.80492l-50.61942,10.1694
	C46.50774,129.86424,45.36295,126.66042,46.33424,121.12511z M192.27315,160.04033c-0.40614,0-1.85513-0.87521-3.65527-4.87633
	c-3.87149-8.54947-6.79091-24.86174-8.21605-44.63133l17.05266-4.18132c3.20747-0.32787,5.66675-3.26627,7.3318-7.5554
	c-0.59703,15.0705-2.03201,28.9083-4.18761,40.00652C197.23096,156.13861,193.36302,160.04033,192.27315,160.04033z
	 M11.84431,107.11162c-2.62235,0-6.41674-8.67933-6.41674-24.3737c0-6.74007,0.79041-13.24361,2.16851-17.84299
	c1.44435-4.82001,3.19081-6.53004,4.24824-6.53004h22.6712c-1.98738,6.62073-3.08771,15.20457-3.08771,24.36906
	c0,8.28156,0.90024,17.21085,3.04274,24.37767H11.84431z M110.85632,181.92949c-1.68982,1.23987-4.63855,3.19801-7.73389,4.35283
	c-1.07166-9.40953-1.78149-19.91501-1.71466-31.02853L110.85632,181.92949z M96.54776,140.44284
	c-0.03371,0.1889-0.04637,0.38055-0.03893,0.57576c-1.1756,17.68199-0.1846,34.42184,1.55798,48.54076
	c-0.01459,0.21111-0.01218,0.42552,0.02492,0.64333c0.02477,0.14577,0.06502,0.28456,0.11115,0.42014
	c2.76993,21.77122,7.23988,37.09422,7.99112,39.56908c0.09474,3.05035-1.67027,5.81714-5.25,8.22815
	c-10.18398,6.85602-31.00445,8.29639-42.03448,2.90659c-3.82686-1.87036-5.95032-4.32709-6.31869-7.30786
	c8.66898-33.5719,8.13174-76.59689,7.00889-99.60086l38.34048-7.70233C97.31656,131.33385,96.86049,135.91667,96.54776,140.44284z" class="svg-style-0"/></svg>