<svg version="1.1" id="rolled_newspaper_00000162338495394029751960000001253575989721246873_" xmlns="http://www.w3.org/2000/svg" xmlns:xlink="http://www.w3.org/1999/xlink" x="0px" y="0px" viewBox="0 0 250 216.87733" style="enable-background:new 0 0 250 216.87733;" xml:space="preserve"><defs><style> .svg-style-0 {  fill: rgb(0, 0, 0); }</style></defs><path id="path-01_00000157994905166129144220000000196251371319149977_" d="M185.87799,58.60004l40.52997-28.76001
	c0.79999-0.58002,1.89001-0.45001,2.53998,0.28998l3.34003,3.79004c0.37,0.41998,0.53998,0.96997,0.46997,1.5
	c-0.07996,0.54999-0.37,1.03998-0.82996,1.33997l-41.58997,28.02002c-0.32001,0.21002-0.70001,0.32001-1.06,0.32001
	c-0.59998,0-1.15997-0.27002-1.53998-0.77002l-2.29004-3.03998c-0.31-0.41003-0.42999-0.91998-0.34998-1.42999
	S185.448,58.89001,185.87799,58.60004z M193.46802,71.63l1.47998,3.71002c0.20001,0.51001,0.62,0.91003,1.13,1.10004
	c0.21002,0.06,0.42999,0.09998,0.64001,0.09998c0.32001,0,0.65002-0.08002,0.94-0.23999l41.2699-23.09003
	c0.83997-0.46997,1.19995-1.46997,0.84998-2.35999L237.23792,44.38c-0.20001-0.53998-0.65002-0.94995-1.18005-1.12994
	c-0.54993-0.17004-1.1499-0.09003-1.62988,0.21997l-40.21997,25.84998C193.45801,69.82001,193.12799,70.78003,193.46802,71.63z
	 M173.52802,46.80005c-0.41998,0.34998-0.65997,0.84998-0.69,1.38c-0.03003,0.53998,0.16998,1.06,0.54999,1.44l6.04999,6.02997
	c0.37,0.35999,0.86005,0.56,1.36005,0.56c0.40997,0,0.82001-0.13,1.15997-0.39996l39.98993-30.60004
	c0.42999-0.33002,0.71002-0.83002,0.75-1.37c0.04004-0.52997-0.14001-1.03998-0.5-1.42999
	c-2.73999-2.90997-5.92999-5.12-9.73999-6.77002c-0.65997-0.27997-1.45001-0.15997-2,0.30005L173.52802,46.80005z
	 M249.30786,76.47003c-0.17999,0.16998-0.40997,0.31-0.63995,0.42999l-0.66003,0.21002
	c-0.29999,0.08997-0.60999,0.17999-0.90997,0.26996c-0.62,0.18005-1.23999,0.37006-1.87,0.56006
	c-2.54999,0.70996-5.20001,1.63995-7.92999,2.56995c-2.69995,0.98004-5.46997,1.99005-8.23999,2.99005
	c-2.75995,1-5.50995,2.02997-8.14996,3.06c-2.65002,1.01996-5.19,2.06-7.57001,3.01996
	c-4.77002,1.92004-10.14996,4.20001-15.54993,6.56c-3.84003,1.64001-7.66998,3.34003-11.29004,4.98004
	c-0.01996,0.00995-0.03998,0.01996-0.06,0.02997c-0.31995,0.16003-0.63995,0.31-0.96997,0.47003
	c-2.09003,1.01996-4.17999,2.01996-6,2.91998c-1.83002,0.89001-3.91998,1.90997-6.01001,2.91998
	c-1.05994,0.51001-2.06995,1.08002-3.11993,1.54999c-1.03003,0.48004-2.03998,0.96002-2.97998,1.40002
	c-0.25,0.12-0.48999,0.23999-0.73004,0.34998c-0.02997,0.07001-0.07001,0.12-0.10999,0.18005
	c-4.43823,5.97406-10.72894,11.31665-19.36719,16.40063c-0.03967,0.06317-0.09863,0.09698-0.16534,0.09607
	c-3.5813,2.09918-7.55322,4.15576-11.97742,6.19324c-0.47998,0.21002-1,0.33002-1.48999,0.33002
	c-0.26001,0-0.51001-0.02997-0.75-0.08997c-2.64001,2.09998-7.52998,6.02997-13.28999,10.84998
	c-4.32001,3.63-9.14001,7.73999-13.85992,11.90002c-4.72003,4.14996-9.35004,8.37-13.38,12.08997
	c-4.04004,3.73004-8.60004,8.01001-13.15002,12.35999c-2.25995,2.19-4.52997,4.38-6.73993,6.52002
	c-2.19,2.16003-4.35004,4.23999-6.40002,6.19c-8.15997,7.81-14.32996,13.72998-14.32996,13.72998
	c-0.46002,0.44-0.69,0.61005-0.69,0.53003c0-0.01001,0.00995-0.03998,0.02997-0.07001
	c-1.16998,1.15002-2.33997,2.33002-3.52002,3.51001l-2.13989,2.13c-0.67004,0.66998-1.49005,1.54999-2.5,2.10999
	c-1.97003,1.15997-4.42999,1.47003-6.67004,0.83002c-1.13-0.32001-2.13995-0.97003-3-1.5
	c-0.89996-0.58002-1.77997-1.17999-2.61999-1.84003c-1.70996-1.27997-3.32001-2.71997-4.83997-4.22998
	c-3.04999-3.04999-5.66003-6.52002-8.09003-10.10999c-2.45001-3.59003-4.61994-7.40002-6.59992-11.34003
	c-3.92004-7.88-6.83002-16.41998-8.60999-25.21002c-1.78003-8.75-2.98999-17.81-2.03003-26.90997
	c0.83002-9.03003,4.85999-18.20001,12.28998-23.87c1.85999-1.40002,3.90997-2.56,6.11994-3.33002
	c2.22003-0.76996,4.51001-1.13,6.76001-1.31c4.51001-0.32001,8.86999,0.09003,12.98999-0.39996
	c4.12006-0.40002,7.88995-2.19,11.56995-4.14001c3.67004-1.98999,7.21002-4.28003,10.98004-6.21002
	c3.78998-1.95001,7.81-3.25,11.75-4.28998c3.94-1.04004,7.84991-1.85004,11.60992-2.77002c3.76001-0.90997,7.52997-2,11.12-3.58002
	c1.79999-0.75995,3.5-1.73999,5.16998-2.78998c0.48004-0.32001,0.98004-0.64001,1.48004-0.96002
	c-0.03003-0.12-0.03003-0.25995-0.03003-0.38995c0-1.23004,0.65002-2.36005,1.72998-2.99005l30.72999-17.98999
	c0.97998-0.57001,2.16998-0.63995,3.19-0.19995c0.48999,0.21997,0.96997,0.42999,1.46997,0.66998
	c0.09003-0.04004,0.19-0.10004,0.28003-0.16003c3.69989-2.25995,7.30994-4.72998,10.8299-7.33997
	c7.06-5.26001,13.75-11.10004,20.24005-17.20001c3.24994-3.04999,6.44989-6.15998,9.63989-9.28998
	c3.17004-3.15002,6.37-6.24005,9.38-9.47003c3.01001-3.21997,5.82001-6.58002,8.22003-10.20001
	c0.58997-0.89996,1.15997-1.82001,1.70996-2.75l0.77002-1.40997l0.20001-0.35999c0.08997-0.15002,0.16998-0.31,0.26996-0.44
	c0.20001-0.29999,0.41003-0.58002,0.67004-0.81c0.98999-0.98999,2.41998-1.51001,3.81995-1.42004
	c0.33997,0.03003,0.67999,0.08002,1.01996,0.19c0.33002,0.10004,0.55005,0.19,0.83002,0.27002l1.57001,0.54999
	c8.34998,3.08002,15.89001,7.92004,22,13.94c6.11993,6,10.74994,13.25,13.59991,20.87c1.45001,3.79004,2.5,7.67999,3.16003,11.54004
	c0.35999,1.92999,0.57996,3.87,0.75,5.78998c0.07996,0.96002,0.14001,1.90997,0.19,2.85999l0.02997,1.44
	c0,0.47003,0.04999,0.91003-0.02997,1.53003c-0.15002,1.13995-0.73999,2.21997-1.63,2.94c-0.42999,0.37-1.02002,0.63-1.38,0.81
	l-1.25,0.57996c-0.75,0.34003-1.5,0.68005-2.23999,1.03003c0.09998,0.08002,0.19,0.15997,0.31,0.26001
	c0.69,0.63,1.75,1.48999,2.85999,2.76001c1.10999,1.27997,2.37,2.88,3.62,4.79999c0.34003,0.51001,0.57001,0.91998,0.97003,1.57001
	C250.19788,74.57001,250.0979,75.78003,249.30786,76.47003z M141.77808,62.14001c1.34998,0.73004,2.71997,1.55005,4.06,2.48999
	l18.52002-10.90997c0.82001-0.47998,1.83997-0.31,2.44995,0.40997l3.26001,3.94c0.36005,0.43005,0.51001,1,0.42004,1.55005
	c-0.10004,0.54999-0.43005,1.02997-0.92004,1.31l-16.52997,9.79999c1.26996,1.29999,2.45996,2.71997,3.60999,4.26001
	l16.87994-9.85004c0.79999-0.46997,1.82001-0.31,2.40997,0.40002l3.54004,4.14001c0.35999,0.44,0.51996,1.01001,0.42999,1.57001
	c-0.10004,0.54999-0.42999,1.02997-0.92999,1.32996l-17.59998,10.26001c0.75,1.57001,1.45001,3.25,2.08002,5.02002L181.388,77.39001
	c0.45001-0.26996,0.98999-0.33997,1.5-0.19c0.5,0.15002,0.92999,0.5,1.16998,0.95001l1.64001,3.16998
	c0.47003,0.89001,0.15002,2.01001-0.71997,2.53003l-19.41998,11.41998c0.57001,2.58002,1.02002,5.35004,1.30005,8.29004
	c0.59998-0.55005,1.5-1.24005,2.69-2.09003c0,0,2.5-1.72998,7.16992-4.73999c4.66998-3.02002,11.56-7.25,20.41998-12.12
	c8.82996-4.89001,19.64996-10.32001,31.89996-16.13c3.08002-1.45001,6.23999-2.94,9.4599-4.47003
	c1.62006-0.75,3.26001-1.52997,4.91003-2.28998c0.78998-0.40002,1.78998-0.76001,2.26001-1.15002
	c0.52997-0.44,0.88-1.10999,0.97998-1.81c0.03998-0.31995,0.01001-0.81995,0-1.26996l-0.02997-1.39001
	c-0.07001-0.91998-0.11005-1.85999-0.19-2.78003c-0.19-1.87994-0.40002-3.75995-0.76001-5.62994
	c-0.67999-3.76001-1.70001-7.51001-3.12-11.18005c-2.80005-7.37-7.29999-14.32996-13.23999-20.12
	c-5.93994-5.78998-13.25-10.44995-21.31-13.38995l-1.53998-0.52002c-0.23999-0.08002-0.52997-0.19-0.71997-0.23999
	c-0.20001-0.04999-0.39001-0.10004-0.59003-0.11005c-0.79999-0.04999-1.61993,0.26001-2.17993,0.82001
	c-0.15002,0.13-0.26001,0.29004-0.38,0.47003c-0.04999,0.08002-0.09003,0.16998-0.14001,0.25l-0.20996,0.35999l-0.80005,1.48999
	c-0.56995,0.97003-1.13995,1.92999-1.77997,2.87c-2.47003,3.75-5.34003,7.23999-8.40002,10.51001
	c-3.04999,3.29999-6.23999,6.41998-9.41998,9.57001c-3.16998,3.15002-6.37,6.28003-9.62994,9.34998
	c-6.51001,6.17004-13.25,12.09003-20.40002,17.43005C148.55804,57.69006,145.20807,60.00006,141.77808,62.14001z
	 M131.43811,133.30005c0-0.01001,0-0.01001-0.00995-0.01001c-0.73718-0.52924-1.22101-1.32166-1.37457-2.21692
	c-0.35626,0.28143-0.76532,0.60449-1.2323,0.97333c-1.6706,1.33887-4.00581,3.21051-6.66468,5.34155
	c-5.30054,4.28357-11.81165,9.70636-16.87939,13.99268c-2.5224,2.1568-5.39374,4.61188-8.28217,7.08154
	c-2.86005,2.50275-5.73694,5.0202-8.3017,7.26453c-5.13336,4.48645-8.91711,7.99298-8.91711,7.99298
	c-0.5285,0.47961-0.56665,0.40253-0.0722-0.07678c0,0,3.73413-3.56116,8.66968-8.26801
	c2.479-2.34308,5.32159-4.90442,8.15466-7.44312c2.83154-2.54077,5.68286-5.02606,8.19824-7.19733
	c5.03925-4.3327,11.60089-9.71338,16.96521-13.92847c3.60437-2.8382,6.64722-5.15997,8.25837-6.37988
	c-0.09821-0.73969-0.19592-1.47766-0.30206-2.19611c-0.10999,0.08997-0.21002,0.19-0.32001,0.28998
	c0,0-5.06001,4.27002-13.45002,11.35999c-4.20996,3.53003-9.24994,7.78003-14.90991,12.55005
	c-5.67999,4.73999-11.91003,10.08997-18.57001,15.76001c-6.63995,5.69995-13.68994,11.73999-20.91992,17.94995
	c-1.81,1.56-3.63,3.12-5.45001,4.69c-1.84998,1.54999-3.71002,3.11005-5.57001,4.67004s-3.72998,3.12-5.59991,4.67999
	c-0.42999,0.38-1.11005,0.88-1.72003,1.20996c-0.64001,0.36005-1.33002,0.61005-2.03998,0.80005
	c-1.08502,0.27698-2.22253,0.33014-3.33667,0.1781c0.00317,0.0423-0.22339,0.13507-0.69098,0.28497
	c0,0-0.44641,0.12866-1.29053,0.1571c-0.83789,0.03522-2.09241-0.06592-3.52234-0.62787
	c-1.43719-0.53723-3.00586-1.55103-4.49597-2.95013c-0.7467-0.69867-1.48138-1.48572-2.21222-2.32996
	c-0.72052-0.85162-1.43158-1.76935-2.18732-2.69983c-0.75598-0.93048-1.42993-1.96741-2.17688-2.98517
	c-0.73572-1.02625-1.38214-2.14362-2.09528-3.23938c-0.68414-1.1134-1.29993-2.28705-1.96198-3.44403
	c-0.60828-1.18475-1.1958-2.39014-1.78424-3.59283c-0.52368-1.23096-1.08826-2.44531-1.56653-3.68115
	c-0.44733-1.24695-0.94165-2.46655-1.33344-3.698c-0.81195-2.45453-1.48047-4.86469-2.02051-7.13885
	c-0.24121-1.14331-0.5282-2.31897-0.75055-3.53827c-0.20294-1.2226-0.45245-2.4693-0.62726-3.74835
	c-0.36115-2.55676-0.64893-5.20892-0.80414-7.87714c-0.16669-2.6673-0.20764-5.34961-0.12518-7.95691
	c0.04443-2.6076,0.21588-5.14471,0.48468-7.52704c0.26489-2.38245,0.66553-4.60504,1.15161-6.57684
	c0.50372-1.96863,1.10626-3.67731,1.67896-5.06946c0.58691-1.38751,1.13275-2.46368,1.54346-3.18329
	c0.19659-0.36462,0.3559-0.64215,0.47467-0.82373c0.11395-0.18427,0.17346-0.28046,0.17346-0.28046
	c0.53253-0.84924,0.65137-0.72668,0.18475,0.10956c0,0-0.05554,0.09747-0.16187,0.28412
	c-0.11108,0.18396-0.25891,0.4649-0.44,0.83362c-0.37952,0.72742-0.87787,1.81396-1.39734,3.20764
	c-1.01813,2.79443-1.98962,6.862-2.39209,11.58142c-0.20325,2.35809-0.30511,4.87299-0.27808,7.45703
	c-0.0105,2.58276,0.11475,5.23157,0.29236,7.86536c0.18262,2.63428,0.4917,5.24945,0.86536,7.76917
	c0.18109,1.26068,0.43469,2.48828,0.6394,3.69293c0.22412,1.20117,0.51031,2.35852,0.74835,3.48511
	c0.53076,2.24072,1.17859,4.61664,1.96094,7.03857c0.37701,1.21533,0.85406,2.41827,1.28265,3.65045
	c0.46735,1.21729,0.98126,2.42871,1.46942,3.65363c0.54956,1.19696,1.09808,2.39862,1.66772,3.58136
	c0.62311,1.15442,1.20068,2.32794,1.84735,3.4422c0.67548,1.09644,1.28564,2.21674,1.98621,3.24658
	c0.71173,1.02142,1.35236,2.06372,2.07654,3.00012c0.72363,0.93622,1.40558,1.86188,2.09729,2.72015
	c0.70081,0.84937,1.40125,1.63507,2.11102,2.33044c1.41693,1.39191,2.89691,2.39209,4.25592,2.93384
	c1.35742,0.54712,2.53583,0.72192,3.33954,0.73529c0.40332,0.01196,0.71533-0.01373,0.92529-0.0354
	c0.21057-0.02118,0.32056-0.03223,0.32056-0.03223c0.29034-0.03455,0.48529-0.04993,0.60486-0.04938
	c-0.28876-0.04382-0.57727-0.09119-0.86102-0.16309c-0.71002-0.19-1.39001-0.46002-2.02997-0.81
	c-0.61005-0.34003-1.29004-0.84003-1.72003-1.23004c-0.95001-0.81-1.88-1.64996-2.76001-2.51996
	c-1.78998-1.73004-3.45996-3.57001-5.01996-5.49005c-3.11005-3.84998-5.69-8.06-7.73004-12.41998
	c-2.02997-4.35999-3.44995-8.94-4.42993-13.40997c-0.98999-4.47003-1.62-8.90002-1.96997-13.21002
	c-0.67999-8.60999-0.10004-17.94,2.32001-27.23999c0.69995-2.38,1.65991-4.82001,3.66992-6.75
	c0.97998-0.95001,2.34998-1.72003,3.84998-1.83002c1.48999-0.12,2.90002,0.31,4.08002,1.01001
	c2.35999,1.44,3.84998,3.63,5.06,5.79999c1.20001,2.21002,2.10998,4.48004,3.09002,6.70001
	c3.91998,9.08002,6.07996,18.82001,6.82996,28.39001c0.19,2.39996,0.27002,4.76001,0.39001,7.10999
	c0.09998,2.34998,0.15002,4.70001,0,7.04999c-0.08002,1.17004-0.21002,2.35004-0.41998,3.5
	c-0.10004,0.59003-0.23004,1.15002-0.38,1.73999c-0.17999,0.63-0.44,1.23004-0.81,1.78003c-0.37,0.56-0.87,1.06-1.47003,1.41998
	c-0.57996,0.29999-1.17999,0.54004-1.85999,0.59003c0.71002,0.33002,1.59003,0.60999,2.66998,0.65997
	c1.67999,0.13,3.76001-0.32996,5.95001-1.27997c2.18994-0.94,4.50995-2.34003,6.86993-3.98004
	c2.37-1.64996,4.75-3.57996,7.35004-5.50995c2.54999-1.87006,5.14996-3.84003,7.73999-5.81
	c5.20001-3.93005,10.38-7.84003,15.07996-11.10004c2.33997-1.64001,4.87994-3.34998,7.56995-5.02997
	c2.71002-1.67004,5.45001-3.32001,8.19-5.08002c5.47003-3.5,10.87-7.22003,15.68994-10.52002
	c4.82001-3.31,9.07001-6.20001,12.16003-8.20001c1.89996-1.21997,3.32996-2.13995,4.14997-2.67999
	c-0.41998-2.12-0.88996-4.16998-1.44001-6.13995l-9.07996,5.34998c-0.30005,0.16998-0.63,0.25-0.97003,0.25
	c-0.20001,0-0.39996-0.02002-0.58997-0.08002c-0.51001-0.16998-0.94-0.54999-1.16003-1.03998l-1.57001-3.53003
	c-0.39996-0.88-0.07001-1.92999,0.78003-2.41998l10.19-5.94c-0.66998-1.71997-1.40002-3.38-2.19-4.96002l-9.79004,5.71002
	c-0.31,0.16998-0.63995,0.25-0.95996,0.25c-0.65002,0-1.27002-0.32001-1.63-0.89001l-2.81995-4.52997
	c-0.27002-0.45001-0.34998-0.97003-0.22998-1.48004c0.13-0.48999,0.44-0.91998,0.88995-1.17999l9.82996-5.72998
	c-1.02997-1.45001-2.14996-2.82001-3.33002-4.10999l-9.13989,5.41998c-0.31,0.19-0.64001,0.27002-0.98004,0.27002
	c-0.58997,0-1.16998-0.27002-1.53998-0.79004l-3.08002-4.25c-0.32001-0.42999-0.42999-0.97998-0.32001-1.5
	c0.10004-0.52997,0.43005-0.97998,0.90002-1.25995l7.15002-4.21002c-0.7226-0.5434-1.47052-1.05487-2.23126-1.55249
	c-0.1958,0.17108-0.40686,0.34955-0.64563,0.51959c-0.48431,0.36432-1.02832,0.76031-1.62433,1.15765
	c-2.3537,1.64709-5.57068,3.20648-8.12769,4.28046c-1.28192,0.534-2.75726,1.0957-4.24713,1.63666
	c-1.4928,0.5351-3.01001,1.01782-4.35449,1.47491c-1.34729,0.45416-2.55261,0.80743-3.42963,0.99304
	c-0.8761,0.19086-1.41364,0.24548-1.41364,0.24548c-0.29694,0.03381-0.29919-0.0777-0.01929-0.12952
	c0,0,0.52954-0.07819,1.38379-0.31458c0.85596-0.23145,2.02148-0.65289,3.32617-1.20245
	c1.30469-0.5553,2.76782-1.17798,4.22198-1.79688c1.45569-0.61047,2.89319-1.23376,4.14612-1.7973
	c1.25214-0.56482,2.66919-1.22076,4.06885-1.92743c0.69775-0.35706,1.39368-0.72162,2.06146-1.09467
	c0.6684-0.37103,1.32574-0.72363,1.92395-1.09045c0.80402-0.47412,1.51007-0.93842,2.12048-1.33954
	c-0.35938-0.22778-0.71289-0.4613-1.07977-0.6825c-0.20996-0.12-0.39996-0.26001-0.57001-0.44
	c-0.41998,0.26001-0.81995,0.53998-1.23999,0.81c-1.78998,1.12-3.63,2.16998-5.53998,2.98999
	c-3.79999,1.66998-7.71002,2.78003-11.53003,3.72003c-7.61993,1.88995-15.63989,3.14996-22.8299,6.84998
	c-3.62,1.84003-7.14001,4.10999-10.92999,6.15002c-1.89001,1.01996-3.85004,1.98999-5.91998,2.77997
	c-2.02997,0.81-4.32996,1.38-6.52997,1.62c-4.48004,0.51001-8.85998,0.08002-13.10998,0.39001
	c-2.11005,0.14001-4.19,0.48999-6.14001,1.15997c-1.96002,0.67004-3.79999,1.70001-5.47998,2.96002
	c-3.35999,2.53998-6.04999,6.01001-7.96997,9.84003c-1.94,3.84998-3.03998,8.06995-3.5,12.40997
	c-0.94,8.70001,0.21002,17.59998,1.92999,26.22998c1.72003,8.63,4.51001,16.98004,8.33002,24.73004
	c1.90991,3.87,4.02991,7.59998,6.40991,11.13995c2.38,3.52002,4.89001,6.90002,7.82001,9.84003
	c1.45001,1.46002,2.97998,2.84003,4.60004,4.07001c0.79999,0.63,1.63995,1.20996,2.47998,1.76001
	c0.89001,0.56,1.64001,1.03998,2.52002,1.27997c1.71997,0.53003,3.63995,0.29999,5.19995-0.59998
	c0.78003-0.44,1.37-1.06,2.13-1.79999c0.72003-0.71002,1.44-1.40002,2.14996-2.11005
	c11.37-11.16998,22.14996-21.57996,32.02991-30.78998c0.03003-0.03003,0.06-0.06,0.10004-0.09003
	c4.33002-4.27997,8.67999-8.45996,12.58997-12.06995c8.08002-7.5,18.73999-16.70001,27.56995-23.78003
	C123.91814,139.05005,128.64813,135.42004,131.43811,133.30005z M27.49829,190.32001
	c1.48004,1.83002,3.07001,3.59003,4.77002,5.24005c0.84003,0.82996,1.72003,1.62,2.62,2.39996
	c0.84003,0.76001,1.63,1.17999,2.60004,1.45001c0.94995,0.25,1.95996,0.25,2.90997,0.01001
	c0.97998-0.26001,1.78003-0.67999,2.63-1.42999c1.88-1.56,3.74994-3.11005,5.60992-4.67004
	c1.87-1.54999,3.73004-3.09998,5.58002-4.63995c1.87-1.52002,3.73999-3.02002,5.58997-4.52002
	c7.40002-6.01001,14.60004-11.85999,21.38995-17.38c6.73004-5.58997,13.04999-10.83997,18.73999-15.57001
	c5.71002-4.70996,10.78998-8.89996,15.02997-12.39996c8.48999-6.98004,13.60999-11.18005,13.60999-11.18005
	c0.32001-0.25,0.60004-0.45996,0.85999-0.62994c-0.09998-0.70001-0.21997-1.39001-0.33997-2.07001
	c-0.85004,0.54999-2.13001,1.38995-3.75001,2.51001c-3.03003,2.06-7.22003,5.00995-11.95001,8.43994
	c-2.46875,1.77234-5.0874,3.67261-7.78894,5.60339c-1.79694,1.68066-4.28979,3.97388-7.17468,6.52765
	c-2.9502,2.60455-6.28162,5.5025-9.65411,8.31256c-3.35968,2.82544-6.76019,5.56195-9.76941,7.93756
	c-3.03534,2.34247-6.50537,4.98938-10.052,7.5752c-3.53375,2.60309-7.13818,5.15155-10.36255,7.40564
	c-1.62262,1.11218-3.13129,2.17816-4.51605,3.10193c-1.38434,0.92395-2.61664,1.7464-3.64441,2.43237
	c-2.06445,1.35797-3.30743,2.17554-3.30743,2.17554c-0.68909,0.45056-0.71753,0.35553-0.06696-0.09998
	c0,0,1.22217-0.84753,3.25201-2.25513c2.00977-1.43555,4.81927-3.44232,8.01813-5.72723
	c3.17657-2.31519,6.72156-4.93683,10.1947-7.61017c3.48645-2.65576,6.89539-5.3692,9.89038-7.75092
	c2.98596-2.39307,6.39642-5.10309,9.76801-7.90167c3.38654-2.78033,6.74377-5.63605,9.72406-8.19672
	c1.03534-0.90509,2.02295-1.76843,2.9538-2.58221c-0.9682,0.67352-1.93597,1.34839-2.91449,2.01221
	c-2.69,1.84003-5.47998,3.60999-8.07996,5.29999c-2.62006,1.72003-5.10004,3.45001-7.40002,5.10004
	c-4.62,3.27997-9.77997,7.17999-15.02997,11.06c-2.63,1.92999-5.27997,3.84998-7.88995,5.67999
	c-2.57001,1.81-5.05005,3.72998-7.52002,5.34998c-2.47003,1.63-4.91998,3.02002-7.30994,3.97003
	c-2.37,0.95001-4.71002,1.41998-6.71002,1.20001c-2.01996-0.16003-3.44-1.17004-4.23999-1.84003
	c-0.42999-0.34003-0.69-0.66998-0.88-0.88c-0.03998-0.02997-0.03998-0.04999-0.07001-0.08997
	c-0.38995-0.23004-0.73999-0.49005-1.04999-0.77002c-1.78998-1.62-2.87-3.60004-3.83997-5.53003
	c-0.96002-1.94995-1.65002-3.96997-2.26001-5.91998c-1.22003-3.91998-2.08002-7.77002-2.65002-11.45001
	c-0.52002-3.70001-0.70001-7.20996-0.65997-10.5c0.02997-0.89996,0.07996-1.77997,0.19-2.64001c0-0.25995,0-0.50995,0.00995-0.78998
	c0.05005-0.82001,0.17004-1.79999,0.83002-2.69c0.32001-0.42999,0.75-0.81,1.32001-1.06s1.27002-0.26001,1.91998-0.10999
	c0.66003,0.15997,1.20001,0.52997,1.64001,0.90997c0.44,0.39001,0.66003,0.89001,0.89001,1.32001
	c0.40997,0.89001,0.69,1.67999,0.94,2.48004c0.21997,0.78998,0.44,1.62994,0.59998,2.51996
	c0.15002,0.89001,0.28003,1.79999,0.34003,2.72003c0.14001,1.82996,0.09998,3.65997,0,5.27997
	c-0.09003,1.60999-0.25,3.01001-0.35004,4.02002c-0.04999,0.5-0.08997,0.89996-0.12,1.16998
	c-0.01001,0.28003-0.06,0.41998-0.07996,0.41998c-0.35004,0.31-0.84003,0.28003-1.12-0.06995
	c-0.02002,0-0.05005-0.15002-0.03003-0.42004c0-0.27997,0.01001-0.67999,0.02002-1.17999c0.01001-1,0-2.39001-0.06-3.95996
	c-0.06-1.57001-0.19-3.32001-0.44-5.02002c-0.26001-1.69-0.64001-3.34003-1.13-4.72003c-0.25-0.66998-0.54999-1.42999-0.87-2.10999
	c-0.14001-0.33002-0.38-0.58997-0.48999-0.88c-0.13-0.28998-0.27002-0.52997-0.45001-0.69
	c-0.35004-0.34998-0.98999-0.20001-1.5,0.27002c-0.5,0.44-0.78003,1.19-0.94,1.92999c-0.13,0.66998-0.22003,1.31-0.29004,1.90997
	c-0.01996,0.46002-0.02997,0.92004-0.00995,1.39001c0.12,3.21002,0.57996,6.67999,1.21997,10.28003
	c0.59998,3.60999,1.48999,7.38,2.73999,11.20996c0.62,1.92004,1.29999,3.84003,2.23004,5.67004
	c0.57861,1.14465,1.24274,2.28937,2.01349,3.31641c-0.01965-0.03595-0.02972-0.05426-0.05261-0.09613
	c-0.14258-0.27533-0.38208-0.66138-0.62683-1.16931c-0.48053-1.0191-1.14526-2.45319-1.76123-4.14319
	c-0.33435-0.83643-0.60394-1.75134-0.89832-2.68616c-0.26337-0.94287-0.53967-1.91022-0.76489-2.88629
	c-0.24628-0.97162-0.43811-1.95135-0.63055-2.89819c-0.18091-0.94897-0.34509-1.86859-0.47437-2.73181
	c-0.26501-1.72552-0.51556-3.69598-0.67139-5.6839c-0.17084-1.98633-0.31238-3.98401-0.43359-5.76324
	c-0.05762-0.88751-0.13458-1.73505-0.09241-2.50427c0.02924-0.76831,0.12134-1.45386,0.27155-2.00873
	c0.14465-0.55646,0.33972-0.97662,0.48724-1.25464c0.17249-0.26636,0.28101-0.39844,0.28101-0.39844
	c0.24988-0.28821,0.25708-0.25702,0.09723,0.06281c0,0-0.078,0.14874-0.19684,0.42676
	c-0.12091,0.27643-0.27533,0.6897-0.36743,1.22943c-0.2157,1.0835-0.05042,2.61951,0.16919,4.38513
	c0.21344,1.77014,0.46344,3.75275,0.73651,5.71771c0.27991,1.96436,0.55145,3.91327,0.82471,5.61835
	c0.12994,0.85388,0.28644,1.76276,0.45319,2.70148c0.1781,0.93585,0.34943,1.90619,0.57013,2.86719
	c0.40271,1.93237,0.93011,3.84448,1.4408,5.53693c0.49469,1.69934,1.05963,3.14923,1.47296,4.1828
	c0.42657,1.02985,0.68347,1.65009,0.68347,1.65009c0.07648,0.24432-0.02441,0.36786-0.15637,0.32721
	c0.35119,0.42572,0.72168,0.82745,1.12536,1.18201c0.73999,0.64001,1.57996,1.07001,2.37994,1.01001
	c0.39001-0.01001,0.80005-0.19,1.18005-0.37c0.34998-0.21002,0.66998-0.53003,0.91998-0.91003s0.45001-0.82001,0.57001-1.27997
	c0.03186-0.12244,0.06183-0.25397,0.09308-0.38141c-0.25592,0.2287-0.56592,0.41766-0.93756,0.5047
	c-0.69171,0.15112-1.39972-0.04346-1.96661-0.39233c-0.58154-0.35992-0.99811-0.87109-1.32629-1.37378
	c-0.32764-0.50806-0.56964-1.00476-0.80402-1.466c-0.47095-0.92419-0.86871-2.04065-1.25964-3.15656
	c-0.38403-1.12006-0.71271-2.26263-0.97327-3.2868c-0.52881-2.04706-0.78925-3.62006-0.78925-3.62006
	c-0.03772-0.21735,0.03564-0.22339,0.08508-0.01691c0,0,0.3136,1.56403,0.9942,3.55017
	c0.34137,0.99176,0.77234,2.08618,1.25836,3.14575c0.47351,1.06567,1.03308,2.07904,1.48254,2.98608
	c0.46143,0.8996,0.93854,1.97137,1.78003,2.53241c0.41644,0.27686,0.92383,0.42102,1.36554,0.3418
	c0.44623-0.05597,0.83899-0.36346,1.11664-0.74878c0.10767-0.14929,0.18854-0.30768,0.26941-0.46558
	c0.16412-0.9964,0.2774-2.01398,0.34174-3.04272c0.01569-0.27032,0.02057-0.54413,0.03101-0.81616
	c-0.10785,0.30457-0.30603,0.64288-0.64014,0.84619c-0.7193,0.43164-1.59076,0.21448-2.15161-0.27136
	c-0.56482-0.48627-0.85883-1.0932-1.17853-1.63495c-0.63696-1.11615-1.11877-2.3197-1.54205-3.3819
	c-0.82281-2.14014-1.23724-3.81445-1.23724-3.81445c-0.05957-0.23102,0.02283-0.24603,0.09991-0.03009
	c0,0,0.5119,1.64886,1.53833,3.6662c0.50128,1.01392,1.17505,2.08728,1.83032,3.15222
	c0.33636,0.53308,0.65216,1.0694,1.04071,1.36963c0.35718,0.30688,0.8717,0.34503,1.112,0.17572
	c0.2431-0.12146,0.3988-0.65973,0.55029-1.2666c0.15497-0.58533,0.30786-1.1925,0.44171-1.80627
	c0.05688-0.25562,0.10022-0.50977,0.15198-0.76593c-0.01892-0.76068-0.0437-1.52399-0.07666-2.29224
	c-0.13-2.33002-0.22003-4.70001-0.41003-7.03998c-0.38-4.70001-1.13-9.43005-2.19-14.11005
	c-1.07001-4.67999-2.46997-9.32996-4.45001-13.70996c-1.01996-2.22003-1.94995-4.46002-3.09998-6.51001
	c-1.16003-2.02002-2.54999-3.98999-4.41003-4.97998c-0.91998-0.47003-1.94995-0.70001-2.85999-0.56
	c-0.50439,0.06097-0.97754,0.25433-1.41986,0.53217c0.35815,0.02057,0.78534,0.06665,1.27814,0.18127
	c0.74835,0.16022,1.62048,0.4964,2.49292,1.05463c0.88049,0.54138,1.76733,1.29901,2.56158,2.23224
	c0.79089,0.93384,1.49243,2.03217,2.10077,3.20557c0.59064,1.18323,1.08936,2.43689,1.55548,3.68372
	c0.93396,2.49243,1.76703,5.00671,2.42114,7.23834c1.32861,4.45868,2.58453,10.27393,3.24835,14.99878
	c0.16492,1.18134,0.28961,2.29474,0.39886,3.29736c0.10297,1.00354,0.20557,1.89514,0.24194,2.64404
	c0.08868,1.49438,0.14215,2.39423,0.14215,2.39423c-0.01245,0.49579-0.35706,0.51727-0.44727,0.04077
	c0,0-0.10693-0.89148-0.34119-2.36328c-0.11188-0.7359-0.24603-1.61823-0.39673-2.60931
	c-0.15833-0.9895-0.34119-2.08636-0.56238-3.24908c-0.79474-4.66718-2.1554-10.39441-3.45263-14.81305
	c-0.63385-2.2135-1.4101-4.71838-2.27368-7.21112c-0.86273-2.48352-1.82874-4.93463-3.22052-6.78778
	c-0.69421-0.91852-1.48376-1.67346-2.2879-2.22876c-0.80151-0.55896-1.59619-0.92963-2.28076-1.17938
	c-0.57379-0.20209-1.06982-0.28961-1.45502-0.33704c-0.25256,0.18707-0.49731,0.39319-0.72339,0.63568
	c-1.35999,1.5-2.28998,3.59998-2.84998,5.71997c-0.29529,1.19598-0.55518,2.39404-0.79065,3.59222
	c0.44916-1.63416,1.14722-3.4469,2.33197-4.99994c0.61072-0.76233,1.39966-1.49438,2.46027-1.72192
	c0.5238-0.10333,1.08191-0.04871,1.55768,0.15222c0.47845,0.19604,0.87012,0.50287,1.18738,0.82324
	c0.64374,0.64581,1.10223,1.45215,1.56647,2.23389c0.46216,0.79657,0.92548,1.62817,1.35254,2.48163
	c0.85529,1.70685,1.56732,3.49316,2.13483,5.10394c0.2865,0.80487,0.52509,1.5708,0.73578,2.26141
	c0.20819,0.69177,0.34399,1.32166,0.47192,1.84155c0.25128,1.04169,0.33527,1.68335,0.33527,1.68335
	c0.02454,0.35651-0.22144,0.40839-0.35443,0.08734c0,0-0.20074-0.60675-0.53418-1.61438
	c-0.17517-0.49945-0.38513-1.09833-0.62103-1.77094c-0.23859-0.67072-0.50653-1.41364-0.82159-2.19287
	c-0.30872-0.78156-0.66162-1.60022-1.04175-2.43213c-0.3725-0.83569-0.80707-1.66815-1.21515-2.50946
	c-0.41449-0.83868-0.85925-1.65881-1.2981-2.4483c-0.44812-0.7923-0.86115-1.54248-1.37299-2.0863
	c-0.49603-0.55176-1.17706-0.93958-1.93854-0.81653c-0.76031,0.11487-1.49945,0.68311-2.08386,1.35449
	c-1.16852,1.39996-1.99585,3.12476-2.51825,4.71594c-0.53076,1.59637-0.81696,3.0603-1.01691,4.10309
	c-0.0304,0.17279-0.05804,0.32965-0.08429,0.47882c-0.82776,6.17334-0.9325,12.27875-0.44232,18.02966
	c0.35992,4.16998,0.97992,8.46997,1.9599,12.81c0.96002,4.33997,2.31,8.64996,4.23999,12.82001
	c0.36969,0.78278,0.77393,1.55402,1.17859,2.32489c-0.08051-0.20386-0.16595-0.38971-0.2439-0.59851
	c-0.30188-0.79626-0.61292-1.61676-0.93073-2.45508c-0.30353-0.84357-0.57654-1.71802-0.87354-2.59784
	c-0.30945-0.87646-0.56702-1.78131-0.80829-2.69647c-0.24249-0.91461-0.51935-1.82654-0.73407-2.75244
	c-0.42902-1.85211-0.85864-3.69916-1.1568-5.51147c-0.36279-1.80078-0.54718-3.56915-0.78449-5.21252
	c-0.14728-1.65356-0.36603-3.41809-0.43042-5.25293c-0.03967-0.91663-0.07996-1.84833-0.12061-2.78821
	c-0.00244-0.94067-0.00488-1.88953-0.00732-2.83978c-0.02045-0.9502,0.04871-1.9007,0.07935-2.84576
	c0.03809-0.94501,0.07361-1.88452,0.17316-2.8078c0.08459-0.92352,0.16815-1.8349,0.24994-2.72723
	c0.11743-0.888,0.2323-1.75714,0.34381-2.60059c0.19293-1.69037,0.54089-3.25305,0.77234-4.67139
	c0.25616-1.38959,0.63605-2.76263,1.5379-3.50079c0.41785-0.38086,0.99078-0.50891,1.41803-0.44727
	c0.44171,0.04327,0.7912,0.21405,1.0343,0.39771c0.5025,0.37872,0.51837,0.78479,0.52515,0.76624
	c0.03882,0.18127,0.01917,0.32251-0.00732,0.40631c-0.02368,0.08606-0.039,0.12512-0.04663,0.12134
	c-0.02887-0.00684,0.04034-0.18774-0.03961-0.505c-0.00641,0.01648-0.03784-0.34753-0.51904-0.66541
	c-0.42822-0.29449-1.4303-0.57672-2.16803,0.15057c-0.75793,0.69452-1.03418,1.96539-1.2016,3.37128
	c-0.18481,1.41772-0.47876,2.9776-0.61188,4.66187c-0.08112,0.8396-0.16467,1.70477-0.25012,2.58868
	c-0.04901,0.88654-0.09906,1.79193-0.14978,2.70947c-0.07043,0.91602-0.05438,1.84802-0.08081,2.78308
	c-0.01135,0.93549-0.06195,1.87561-0.02393,2.81512c0.01892,0.93896,0.03784,1.87665,0.05658,2.80615
	c0.0545,0.92792,0.10852,1.84778,0.16168,2.75275c0.08856,1.81085,0.32458,3.55109,0.47949,5.18237
	c0.24237,1.6214,0.42297,3.367,0.7746,5.14587c0.28705,1.79053,0.69818,3.6167,1.10315,5.45038
	c0.20276,0.91669,0.46619,1.82001,0.69421,2.72668c0.1178,0.45245,0.23529,0.90363,0.35223,1.35266
	c0.13281,0.44452,0.26508,0.88696,0.39642,1.32648c0.26398,0.87872,0.50439,1.75311,0.77625,2.59741
	c0.28638,0.8399,0.56659,1.66187,0.83856,2.45959c0.53632,1.59924,1.16547,3.0545,1.66736,4.39197
	c0.20508,0.46649,0.39893,0.90729,0.58698,1.33496C25.18176,187.24829,26.28643,188.81744,27.49829,190.32001z M164.35809,109.34003
	c0.10999-0.14996,0.16998-0.34998,0.16998-0.54999c-0.0163-0.43536-0.04987-0.85779-0.07263-1.28833
	c-0.45355,0.26233-0.46118,0.2016-0.0058-0.10266c-0.20306-3.75458-0.63745-7.33514-1.33154-10.69904
	c-0.09003-0.44995-0.20001-0.91998-0.31006-1.38c-0.37-1.62994-0.79999-3.22998-1.31-4.76996
	c-0.12-0.44-0.26996-0.87-0.42999-1.29999c-0.58997-1.74005-1.27997-3.42004-2.04999-5.03003
	c-0.17999-0.40997-0.39001-0.81-0.58997-1.21997c-0.99005-1.97003-2.11005-3.82001-3.34003-5.56
	c-0.26001-0.37006-0.51001-0.74005-0.79999-1.08002c-1.10999-1.5-2.32001-2.91003-3.62-4.23999
	c-0.31-0.32001-0.65002-0.64001-0.98999-0.96002c-1.58002-1.53003-3.31-2.92999-5.16003-4.20001
	c-0.40997-0.27997-0.82001-0.56-1.25-0.82001c-1.33002-0.87-2.70996-1.65997-4.15991-2.37
	c-0.78003-0.39996-1.57001-0.77997-2.38-1.12c-0.10999-0.04999-0.22003-0.07001-0.32001-0.07001
	c-0.15002,0-0.29999,0.04004-0.42999,0.12l-2.54382,1.48718c0.1297,0.01929,0.27771,0.04449,0.46094,0.08661
	c0.52997,0.11884,1.2594,0.36682,2.02936,0.76971c0.76178,0.41705,1.55151,0.97174,2.31805,1.53265
	c0.76678,0.56482,1.51343,1.15271,2.12335,1.72034c1.22784,1.12518,2.68292,2.68701,3.68787,4.0697
	c0.50079,0.69238,0.92285,1.31055,1.21497,1.75885c0.28131,0.45624,0.43481,0.74048,0.43481,0.74048
	c0.06128,0.17188-0.16656,0.32764-0.29712,0.21051c0,0-0.21185-0.23901-0.56342-0.63568
	c-0.33649-0.40674-0.82147-0.96313-1.39197-1.57684c-0.58258-0.60327-1.20068-1.30664-1.85962-1.96533
	c-0.65204-0.66449-1.31879-1.30548-1.9115-1.86115c-1.17957-1.10553-2.69269-2.57428-4.0528-3.50745
	c-0.66705-0.48846-1.32001-0.81305-1.81-0.98492c-0.30865-0.1106-0.5354-0.16321-0.66998-0.18964l-2.36914,1.38501l-17.0323,9.97003
	c0.34717,0.22961,0.99011,0.66254,1.75049,1.21283c1.13788,0.8194,2.50922,1.90912,3.51947,2.83807
	c1.01428,0.92505,2.15948,2.25696,3.02545,3.36353c0.84784,1.12439,1.39557,2.03754,1.39557,2.03754
	c0.05096,0.14288-0.18628,0.31537-0.29779,0.22241c0,0-0.70862-0.7785-1.64227-1.80432
	c-0.91638-1.03876-2.13629-2.24768-3.06763-3.21844c-0.93103-0.97125-2.15576-2.18591-3.20477-3.09766
	c-0.76294-0.67035-1.41388-1.18677-1.71106-1.41785l-5.13037,3.00305c0.50543,0.30505,1.50714,0.92621,2.68726,1.75098
	c1.69672,1.17438,3.7027,2.7948,5.1629,4.19147c0.71716,0.70923,1.53967,1.51666,2.27319,2.41199
	c0.75177,0.87915,1.45099,1.80988,2.05438,2.65167c0.60516,0.84149,1.07251,1.62366,1.39972,2.1853
	c0.32098,0.56488,0.51434,0.90515,0.51434,0.90515c0.07892,0.20258-0.17682,0.35394-0.3125,0.19299
	c0,0-0.2229-0.3172-0.5929-0.84369c-0.38544-0.5141-0.92407-1.2326-1.53699-2.05017
	c-1.2381-1.62531-2.92651-3.51776-4.28601-4.96802c-1.36377-1.44592-3.22192-3.19299-4.84155-4.45386
	c-1.15997-0.9162-2.16003-1.59619-2.63361-1.90833l-3.03296,1.77533c-0.35004,0.20996-0.40002,0.51996-0.40002,0.68994
	c0,0.15002,0.03998,0.51001,0.42999,0.75c0.16003,0.10004,0.32001,0.19,0.47003,0.30005c1.59998,0.95996,3.12,2.01001,4.56989,3.13
	c0.37006,0.28998,0.75,0.57996,1.13,0.89996c1.70001,1.38,3.32001,2.88,4.81,4.48999
	c0.33002,0.34003,0.64001,0.67004,0.93005,1.02002c1.17999,1.29999,2.26996,2.67999,3.29999,4.13
	c0.26996,0.35999,0.52997,0.71997,0.76996,1.09998c1.21002,1.75,2.31,3.60004,3.33002,5.56
	c0.22003,0.39001,0.41998,0.79004,0.60999,1.19c0.79004,1.58002,1.51001,3.23004,2.19,4.95001
	c0.17004,0.41003,0.33002,0.84003,0.49005,1.27002c0.56995,1.52997,1.10999,3.12,1.58997,4.76001
	c0.13,0.44,0.27002,0.89996,0.40002,1.33997c1.23999,4.42004,2.17999,9.17999,2.82001,14.31
	c0.03998,0.34003,0.28998,0.51001,0.40997,0.59003c0.25,0.14001,0.53003,0.14001,0.78998,0.02997
	c0.77118-0.35492,1.52734-0.71027,2.27106-1.06616c-0.06042-0.76178-0.10663-1.70154-0.20642-2.74792
	c-0.22211-2.64099-0.71075-5.89514-1.11713-8.44135c-0.41406-2.54486-1.08527-5.77814-1.80859-8.33533
	c-0.70953-2.56073-1.40387-4.4516-1.40387-4.4516c-0.08868-0.26392,0.04523-0.3045,0.14587-0.05487
	c0,0,0.76361,1.86658,1.61169,4.39813c0.85614,2.52777,1.74622,5.73621,2.27563,8.29071
	c0.2522,1.27856,0.52692,2.73938,0.68677,4.22455c0.18494,1.48169,0.29791,2.9798,0.37512,4.31512
	c0.04065,0.93109,0.0766,1.77454,0.08228,2.49005c0.81885-0.39642,1.62006-0.79376,2.40552-1.19189
	c-0.06622-0.63116-0.13391-1.35883-0.22919-2.15942c-0.26593-2.45953-0.73328-5.49524-1.04828-7.88208
	c-0.32635-2.38507-0.80469-5.42792-1.30884-7.85535c-0.49438-2.42914-0.9707-4.24554-0.9707-4.24554
	c-0.06-0.25269,0.12726-0.29639,0.20422-0.05737c0,0,0.56342,1.79376,1.2204,4.19458
	c0.66046,2.39917,1.38806,5.41431,1.83984,7.80231c0.21985,1.19446,0.44733,2.55951,0.59412,3.94299
	c0.16479,1.3811,0.28235,2.77539,0.37048,4.01862c0.04041,0.66998,0.07861,1.28973,0.10498,1.84717
	c2.22198-1.14392,4.30786-2.29663,6.26575-3.46234c-0.0448-0.2124-0.08948-0.43372-0.13226-0.66248
	c-0.19025-0.91504-0.4035-1.9408-0.61536-2.95984c-0.19751-1.02332-0.39368-2.03937-0.56598-2.93201
	c-0.34058-1.78748-0.79889-4.06982-1.24286-5.88971c-0.43744-1.82129-0.83301-3.18329-0.83301-3.18329
	c-0.05078-0.18951,0.07172-0.22089,0.13562-0.04236c0,0,1.84967,5.37299,2.75208,8.93311
	c0.22302,0.88892,0.46198,1.90503,0.6673,2.93433c0.19641,1.03113,0.34686,2.07672,0.4801,3.00793
	c0.01929,0.1286,0.03326,0.24969,0.04938,0.37402c1.1225-0.68091,2.20172-1.36676,3.23865-2.05804
	c-0.16284-0.80487-0.38629-1.90894-0.64093-3.16711c-0.49384-2.5777-1.1972-5.76398-1.80017-8.24951
	c-0.59576-2.48669-1.44171-5.64551-2.24402-8.15118c-0.79279-2.50854-1.49744-4.37201-1.49744-4.37201
	c-0.09253-0.25946-0.00781-0.2821,0.0929-0.03589c0,0,0.75757,1.84326,1.66382,4.3194
	c0.91071,2.474,1.94019,5.59229,2.63727,8.06915c0.69824,2.47589,1.4306,5.6817,1.87939,8.28497
	c0.18488,1.15363,0.31226,2.17383,0.4126,2.96643c1.22522-0.82996,2.39276-1.66797,3.49994-2.51624
	c-0.11121-0.5979-0.27472-1.35333-0.41931-2.21484c-0.3493-1.99609-0.84448-4.46545-1.2627-6.39496
	c-0.41211-1.93042-0.99323-4.38739-1.55298-6.34052c-0.55237-1.95502-1.04932-3.41125-1.04932-3.41125
	c-0.06445-0.20276,0.05786-0.23877,0.13275-0.04724c0,0,0.55475,1.43671,1.21686,3.3645
	c0.6651,1.92621,1.41583,4.35168,1.91473,6.27753c0.49902,1.92529,1.00586,4.41656,1.30377,6.43683
	c0.11304,0.72064,0.1731,1.37976,0.22363,1.93243c1.39331-1.08905,2.69305-2.19519,3.90247-3.32123
	c-0.13525-1.0816-0.35571-2.4884-0.58856-4.09033c-0.28571-1.75427-0.63513-3.71722-1.08093-5.64758
	c-0.20599-0.96893-0.45367-1.9248-0.6839-2.85272c-0.21704-0.93127-0.47034-1.82104-0.67969-2.66113
	c-0.46997-1.66522-1.0083-3.56427-1.66766-5.4375c-0.63226-1.88293-1.37445-3.74042-2.07233-5.38147
	c-0.711-1.63562-1.39502-3.04626-1.89728-4.04901c-0.52045-0.99347-0.83386-1.59174-0.83386-1.59174
	c-0.17218-0.33179-0.09106-0.36261,0.08826-0.04919c0,0,0.33191,0.58948,0.88306,1.56836
	c0.53546,0.98773,1.27191,2.37585,2.0556,3.98627c0.76868,1.61658,1.60797,3.44501,2.34241,5.30615
	c0.76068,1.85132,1.40503,3.73621,1.94879,5.3999c0.51422,1.67236,1.05408,3.59381,1.44092,5.56146
	c0.42419,1.95929,0.73279,3.95288,0.97058,5.73254c0.10034,0.89252,0.21307,1.72833,0.25183,2.48798
	c0.02753,0.4317,0.05267,0.82715,0.07635,1.19958c0.45825-0.43896,0.90692-0.88013,1.33875-1.3255
	c-0.04004-0.03998,0.01001-0.15997,0.20996-0.28998c0,0,0.05005-0.03998,0.18005-0.10999c0,0,0-0.01001,0.00995-0.01001
	c0.22809-0.23877,0.43085-0.4845,0.65088-0.72528c-0.02246-0.29578-0.06836-0.8999-0.13257-1.74469
	c-0.06262-0.60767-0.16937-1.33301-0.23077-2.15045c-0.07855-0.81641-0.21863-1.71735-0.33752-2.67804
	c-0.16644-0.95477-0.3158-1.97156-0.53046-3.00446c-0.22229-1.03156-0.41656-2.09583-0.67847-3.14319
	c-0.22797-1.05505-0.52008-2.09058-0.79077-3.0965c-0.26837-1.00665-0.5943-1.96069-0.85822-2.86584
	c-0.31238-0.88855-0.61578-1.85126-0.98468-2.82593c-0.37305-0.97327-0.75647-1.98004-1.18384-2.97284
	c-0.39716-1.0072-0.86121-1.98737-1.31604-2.9433c-0.44879-0.95892-0.96307-1.85266-1.41522-2.71448
	c-0.50574-0.8291-0.9563-1.62665-1.41187-2.31262c-0.46582-0.67993-0.88043-1.28522-1.22626-1.7901
	c-0.74817-0.96973-1.19873-1.55365-1.19873-1.55365c-0.24799-0.32465-0.17627-0.3678,0.08008-0.06738
	c0,0,0.47595,0.56683,1.26648,1.50812c0.37219,0.48981,0.81836,1.07709,1.31964,1.73676
	c0.49463,0.66553,0.99243,1.43988,1.55414,2.24561c0.50769,0.83789,1.08636,1.70776,1.60571,2.64374
	c0.52533,0.93304,1.06647,1.89227,1.54248,2.88153c0.51703,0.97101,0.91876,1.99011,1.34357,2.96204
	c0.41162,0.97736,0.75238,1.9455,1.09265,2.84308c0.28937,0.91443,0.6347,1.88239,0.91559,2.9054
	c0.2832,1.0224,0.58112,2.07733,0.80804,3.15308c0.26129,1.06769,0.4549,2.15338,0.62604,3.21313
	c0.17523,1.05872,0.28284,2.09955,0.40778,3.07501c0.07751,0.98199,0.17633,1.90063,0.21661,2.73224
	c0.04364,0.83148,0.04828,1.57318,0.04749,2.19049c-0.01385,0.49109-0.02539,0.90021-0.03436,1.21997
	C162.84937,111.25812,163.63788,110.31396,164.35809,109.34003z M247.83789,74.60004c-0.20001-0.35999-0.53003-0.95001-0.79999-1.38
	c-1.15002-1.84998-2.31-3.41998-3.35004-4.66998c-1.02997-1.26001-1.81-2.32001-2.41998-2.98999
	c-0.23999-0.28003-0.41998-0.48004-0.58002-0.65002c-0.47998,0.22998-0.95996,0.44-1.44995,0.66998
	c-3.24005,1.5-6.38995,2.98004-9.46997,4.41003c-12.28998,5.75-23.08997,11.10999-31.91992,15.91998
	c-8.84003,4.79999-15.72003,8.97998-20.40002,11.96002c-4.65997,2.98999-7.15991,4.69-7.15991,4.69
	c-1.48004,0.97998-2.60004,1.62-3.35004,1.96997c0.03741,0.38849,0.06421,0.78546,0.09497,1.1792
	c0.00214-0.0014,0.00403-0.00262,0.00616-0.00403c1.61005-1.03485,3.83978-2.5174,6.42633-4.13019
	c2.5943-1.5993,5.51276-3.38177,8.44305-5.10645c2.91656-1.74878,5.87286-3.38965,8.48071-4.81024
	c5.2215-2.83148,11.98376-6.26465,17.48328-8.89453c2.7511-1.31238,5.17181-2.45447,6.91949-3.23688
	c1.75195-0.77264,2.80682-1.23785,2.80682-1.23785c0.58954-0.22723,0.69336,0.02069,0.14557,0.31311
	c0,0-4.12408,2.05231-9.57471,4.76477c-5.43701,2.73865-12.11865,6.29437-17.31451,9.14636
	c-2.59631,1.42938-5.5517,3.0564-8.52478,4.69312c-2.97339,1.63696-5.9389,3.32947-8.57391,4.85394
	c-2.63477,1.52661-4.94885,2.86743-6.60431,3.8266c-0.03516,0.02106-0.06549,0.03931-0.10004,0.06
	c0.04004,0.53662,0.07288,1.08008,0.10065,1.62756c0.25769-0.17804,0.52863-0.36377,0.82629-0.56433
	c1.92114-1.3269,4.65314-3.11682,7.83289-5.04761c3.17084-1.94611,6.81781-3.98346,10.51379-5.87256
	c3.69226-1.89587,7.41553-3.68011,10.73102-5.14465c6.63116-2.93097,15.25299-6.28973,22.27258-8.74512
	c3.50848-1.23059,6.60028-2.28125,8.84296-2.93774c2.23871-0.66553,3.58667-1.06628,3.58667-1.06628
	c0.74921-0.18182,0.82367,0.09015,0.11853,0.36633c0,0-5.27765,1.91766-12.25336,4.45239
	c-6.95972,2.5705-15.51422,6.03247-22.1214,8.94458c-1.65015,0.73163-3.41443,1.51379-5.23859,2.32251
	c-1.81592,0.8266-3.68445,1.69604-5.54407,2.5979c-1.85895,0.90308-3.71326,1.83044-5.5014,2.76904
	c-1.7934,0.92889-3.53455,1.84497-5.15295,2.75018c-3.24341,1.79926-6.02734,3.49786-7.98218,4.76855
	c-0.33514,0.21228-0.63635,0.40741-0.92145,0.59375c0.01477,0.30664,0.03497,0.60822,0.0459,0.91858
	c0.01001,0.26001,0,0.51001-0.04999,0.76996c0.79999-0.50995,1.65997-1.04999,2.53998-1.60999
	c0.96002-0.63,2-1.17999,3.01996-1.76001c2.03998-1.14996,4.10999-2.22998,5.92999-3.16998
	c1.82001-0.92999,3.92999-1.92999,6.07001-2.90002c0.75-0.32996,1.51001-0.64996,2.26001-0.95996
	c0.01996-0.02002,0.04999-0.03003,0.07996-0.04004c0.01001-0.00995,0.03003-0.01996,0.05005-0.01996
	c3.15997-1.60004,6.45996-3.23004,9.77997-4.83002c2.66998-1.27002,5.35999-2.47998,7.96997-3.63
	c2.60999-1.15997,5.15997-2.22998,7.54999-3.21997c2.39001-0.97003,4.96002-1.99005,7.64001-2.99005
	c2.66998-1.00995,5.45996-2,8.25995-2.94995c2.79004-0.99005,5.64001-1.82001,8.40997-2.65002
	c2.76001-0.84003,5.46002-1.63,7.94-2.54999c0.63-0.22003,1.23999-0.42999,1.84998-0.64001
	c0.29999-0.09998,0.60004-0.21002,0.90002-0.31c0.19-0.07001,0.16998-0.04999,0.22998-0.08002
	c0.04004-0.01001,0.08002-0.02997,0.12-0.04999C247.9079,74.98004,247.94788,74.76001,247.83789,74.60004z M36.7683,119.25006
	c-0.19,0.48999-0.16998,1.02997,0.07001,1.50995c5.23999,10.86005,11.80994,27.85004,14.21991,39.32001
	c0.13,0.61005,0.53003,1.10004,1.11005,1.34003c0.23999,0.10999,0.5,0.15997,0.75,0.15997
	c0.34998,0,0.70001-0.08997,1.01001-0.27997L108.52819,127.88c0.75995-0.46997,1.10992-1.37994,0.83997-2.20996
	c-4.04999-12.54999-10.21997-23.14001-16.94995-29.04999c-0.54004-0.47003-1.33002-0.60004-2-0.32001l-52.59991,21.85999
	C37.31829,118.37006,36.95831,118.75006,36.7683,119.25006z M29.13873,113.34485c0,0,0.63617-0.15283,1.71375-0.23834
	c1.07684-0.09766,2.58673-0.07611,4.31134,0.0437c0.86334,0.065,1.78339,0.09357,2.73737,0.11768
	c0.95361,0.01624,1.94318,0.00665,2.93585-0.09875c2.0047-0.19049,3.8941-0.90747,5.45209-1.61078
	c1.56775-0.71704,3.24487-1.66296,4.92688-2.6214c0.83435-0.49146,1.67126-0.98438,2.48669-1.46466
	c0.80554-0.49628,1.60223-0.95856,2.31799-1.45221c2.89514-1.92145,5.0058-3.4812,5.0058-3.4812
	c0.27582-0.22296,0.1344-0.44733-0.19122-0.29199c0,0-2.25336,1.33636-5.28986,2.98303
	c-0.76654,0.39905-1.55176,0.86841-2.37775,1.31726c-0.82556,0.44897-1.67285,0.90967-2.51758,1.36908
	c-1.69861,0.90179-3.38708,1.8067-4.88757,2.48901c-0.75012,0.34589-1.56165,0.68115-2.41473,0.97241
	c-0.85492,0.28967-1.75012,0.50659-2.6662,0.68079c-1.84137,0.33612-3.78009,0.33594-5.51135,0.41064
	c-1.73535,0.07104-3.26922,0.18823-4.34985,0.37396c-1.08276,0.17365-1.71381,0.36749-1.71381,0.36749
	C28.76776,113.30566,28.78399,113.4093,29.13873,113.34485z M134.49585,84.36292c-0.53241-0.95923-1.1571-2.02313-1.8504-3.03418
	c-0.33698-0.51227-0.69916-1.00458-1.05121-1.48047c-0.34778-0.47919-0.73291-0.90485-1.07031-1.31976
	c-0.71198-0.7998-1.53864-1.69501-2.43066-2.53265c-0.87788-0.85156-1.81373-1.64917-2.65791-2.3432
	c-0.85187-0.68604-1.62274-1.25641-2.17804-1.6582c-0.56256-0.39111-0.90143-0.62677-0.90143-0.62677
	c-0.1828-0.12311-0.26947-0.01337-0.09045,0.12689c0,0,0.3255,0.25079,0.86578,0.66711
	c0.53125,0.4278,1.26465,1.03693,2.06403,1.76886c0.79211,0.73975,1.66016,1.59003,2.46527,2.48785
	c0.81989,0.88385,1.56965,1.81812,2.22718,2.63556c0.63129,0.83887,1.3819,1.76715,2.07349,2.75018
	c0.70654,0.97223,1.35919,1.99103,1.92554,2.90955c0.54303,0.93384,1.0202,1.75439,1.36163,2.34155
	c0.31696,0.60101,0.5257,0.95624,0.5257,0.95624c0.13214,0.18182,0.38226,0.07397,0.33496-0.15326
	c0,0-0.14331-0.38885-0.41101-1.02356C135.43085,86.19971,135.02686,85.32397,134.49585,84.36292z M134.98187,76.71875
	c-0.40906-0.59406-0.87793-1.2558-1.37805-1.88831c-0.51172-0.62268-1.0567-1.21088-1.54559-1.71674
	c-0.4986-0.4967-1.07745-1.05048-1.68652-1.57666c-0.59583-0.54071-1.24994-1.02167-1.82605-1.45245
	c-1.1587-0.85529-2.05854-1.45892-2.05854-1.45892c-0.12085-0.0799-0.17529-0.01483-0.06128,0.08228
	c0,0,0.85059,0.67145,1.8755,1.66541c0.50085,0.50702,1.06201,1.07513,1.6192,1.63922
	c0.55511,0.5647,1.08057,1.15002,1.54572,1.65906c0.45813,0.51581,0.98492,1.09729,1.49329,1.70129
	c0.53351,0.5827,1.0506,1.18744,1.50439,1.73389c0.45148,0.54968,0.84851,1.03308,1.13269,1.37909
	c0.27692,0.3526,0.44385,0.56519,0.44385,0.56519c0.10284,0.1059,0.30237-0.02069,0.25092-0.16467
	c0,0-0.13409-0.23749-0.35638-0.63141C135.71167,77.8609,135.39551,77.30994,134.98187,76.71875z M168.05493,43.7182
	c0.78632-0.60468,1.75-1.30432,2.797-2.1358c1.05609-0.82019,2.23132-1.72864,3.43506-2.7536
	c1.20697-1.02045,2.48633-2.10626,3.76605-3.26019c1.28979-1.14288,2.59064-2.34235,3.86682-3.56049
	c1.27008-1.22455,2.52161-2.46094,3.71002-3.68158c1.18347-1.22498,2.32776-2.41138,3.35876-3.55695
	c2.08545-2.26971,4.37439-4.93176,6.57373-7.69141c1.10181-1.37768,2.19006-2.7735,3.21576-4.15863
	c1.05261-1.36627,1.96338-2.78937,3.03815-3.86115c1.06067-1.08948,2.39203-1.70117,3.65997-1.65833
	c1.26135,0.03705,2.35217,0.48895,3.20599,0.92407c0.85541,0.44775,1.51752,0.86957,1.97119,1.1626
	c0.4668,0.27832,0.72186,0.43036,0.72186,0.43036c0.56659,0.30774,0.73737,0.10382,0.27032-0.36987
	c0,0-0.224-0.20111-0.65503-0.5484c-0.44568-0.32483-1.10034-0.80072-2.00952-1.25952
	c-0.8985-0.45532-2.07104-0.94977-3.49701-0.98151c-0.70679-0.00232-1.4679,0.11487-2.18713,0.43347
	c-0.72327,0.30737-1.38531,0.79456-1.974,1.36035c-1.18243,1.14722-2.10449,2.55609-3.16919,3.89441
	c-1.03998,1.3642-2.14032,2.7395-3.2511,4.09857c-2.21722,2.72241-4.51099,5.35461-6.58337,7.61395
	c-4.10822,4.55249-9.6803,10.06561-14.41235,14.22882c-1.18787,1.03461-2.28265,2.03168-3.30182,2.8927
	c-1.00287,0.88068-1.93207,1.62061-2.69189,2.25696c-1.53729,1.25067-2.48181,1.98083-2.48181,1.98083
	c-0.49713,0.39893-0.46881,0.47626,0.06598,0.08771C165.49738,45.60559,166.45856,44.8963,168.05493,43.7182z M76.73504,176.20386
	c-1.24603,1.0484-2.98785,2.51379-4.97089,4.18225c-1.97034,1.68463-4.18036,3.57416-6.37738,5.45264
	c-2.17084,1.909-4.30927,3.82928-6.17908,5.52576c-1.85278,1.71484-3.96185,3.66693-6.08356,5.63068
	c-2.10522,1.9812-4.17987,4.01941-6.04462,5.81921c-3.71124,3.61725-6.51935,6.35431-6.51935,6.35431
	c-0.37231,0.3678-0.31842,0.45184,0.08032,0.08417c0,0,2.85999-2.68109,6.70703-6.15228
	c3.85883-3.45789,8.65601-7.75671,12.41339-11.12372c7.50653-6.7417,19.17059-17.21741,19.17059-17.21741
	c0.38141-0.36572,0.26062-0.52026-0.17163-0.20087C78.75988,174.55859,77.99889,175.17694,76.73504,176.20386z" class="svg-style-0"/></svg>